/vscmnt/brussel_pixiu_data/_data_brussel/112/vsc11236/PredSimResults/SUBJ06mtu3D/SUBJ06mtu3D_12829347.mot
version=1
nRows=8
nColumns=50
inDegrees=yes
endheader
                time	         pelvis_tilt	         pelvis_list	     pelvis_rotation	           pelvis_tx	           pelvis_ty	           pelvis_tz	       hip_flexion_r	     hip_adduction_r	      hip_rotation_r	        knee_angle_r	       ankle_angle_r	         mtp_angle_r	       hip_flexion_l	     hip_adduction_l	      hip_rotation_l	        knee_angle_l	       ankle_angle_l	         mtp_angle_l	    lumbar_extension	      lumbar_bending	     lumbar_rotation	 ercspn_r/activation	 intobl_r/activation	 extobl_r/activation	    abd_r/activation	    add_r/activation	hamstrings_r/activation	bifemsh_r/activation	glut_max_r/activation	iliopsoas_r/activation	rect_fem_r/activation	  vasti_r/activation	gastroc_r/activation	 soleus_r/activation	tib_ant_r/activation	 ercspn_l/activation	 intobl_l/activation	 extobl_l/activation	    abd_l/activation	    add_l/activation	hamstrings_l/activation	bifemsh_l/activation	glut_max_l/activation	iliopsoas_l/activation	rect_fem_l/activation	  vasti_l/activation	gastroc_l/activation	 soleus_l/activation	tib_ant_l/activation	
          0.64065578	         -7.66059471	          4.57217459	         -8.90752294	          0.71753447	          0.92780132	          0.01535353	        -10.36554919	         -4.87065719	          6.40761924	         -6.61357790	         10.30963357	         28.50142475	         30.91850021	          0.76149412	         -5.44611223	         -1.33761665	          6.46120724	          0.20793924	         -1.68306780	         -2.54837595	          3.07477030	          0.05396449	          0.01000008	          0.01000013	          0.05708568	          0.01000022	          0.01643560	          0.13227695	          0.04703971	          0.40343998	          0.01213650	          0.01000042	          0.33896742	          0.31720160	          0.01787202	          0.10235644	          0.18490036	          0.03103325	          0.01213541	          0.08489753	          0.07440739	          0.23159131	          0.01235714	          0.09889254	          0.01000121	          0.01000023	          0.01855029	          0.01000007	          0.28030091	
          0.65346889	         -7.76193303	          4.51058934	         -8.97997911	          0.73457896	          0.92569687	          0.01507268	        -10.59046424	         -4.86180569	          6.04845507	         -7.94420629	          9.70246362	         30.42142820	         30.89478289	          0.84839570	         -5.27640992	         -2.74692302	          6.02887780	          0.21228828	         -1.40817351	         -2.88263776	          3.24635892	          0.07927703	          0.01000012	          0.01000031	          0.04704018	          0.01278743	          0.01598456	          0.10899993	          0.03876205	          0.38434516	          0.01000204	          0.01235202	          0.31078269	          0.29919277	          0.01472704	          0.08434464	          0.15432208	          0.02557227	          0.01000013	          0.09133354	          0.06593834	          0.19083872	          0.04796049	          0.08149018	          0.01000104	          0.01000025	          0.02633041	          0.01763992	          0.28846573	
          0.66628201	         -7.84327108	          4.44589002	         -8.99630664	          0.75200355	          0.92382479	          0.01469854	        -10.73019043	         -4.84362151	          5.66211671	         -9.49658319	          8.93110322	         32.37823900	         30.72208833	          0.93652092	         -5.09903186	         -4.14323934	          5.54586373	          0.19962656	         -1.11756793	         -3.22878329	          3.39738337	          0.09598465	          0.01000009	          0.01000035	          0.03876240	          0.01053733	          0.01317208	          0.08981903	          0.03194101	          0.37525842	          0.01276792	          0.02168524	          0.26985994	          0.27670989	          0.01213549	          0.07588029	          0.12716586	          0.02107227	          0.05343248	          0.07526161	          0.06511229	          0.15725799	          0.09285103	          0.06715015	          0.01000042	          0.01000011	          0.02169702	          0.01453580	          0.34302402	
          0.67909512	         -7.90664550	          4.37078263	         -8.95526094	          0.76957333	          0.92242803	          0.01421449	        -10.70630693	         -4.80129357	          5.24984401	        -11.36498794	          7.93933631	         34.34781280	         30.42839207	          1.04133498	         -4.95304155	         -5.32727607	          4.89972837	          0.17713590	         -0.83541393	         -3.57429179	          3.52067544	          0.12909048	          0.01000008	          0.01000022	          0.03194128	          0.01889346	          0.01763543	          0.07401345	          0.02632028	          0.36367802	          0.01472632	          0.01787296	          0.22237201	          0.23640571	          0.01000002	          0.08288062	          0.10478819	          0.01736414	          0.10839680	          0.09864900	          0.05993526	          0.12958516	          0.12954475	          0.05533358	          0.01000037	          0.01000010	          0.01787899	          0.01197795	          0.37632914	
          0.69190824	         -7.95123745	          4.28975208	         -8.86157865	          0.78707768	          0.92167620	          0.01364017	        -10.42290321	         -4.73162802	          4.81027977	        -13.69334495	          6.73970306	         36.21557092	         30.08095192	          1.16534359	         -4.82230523	         -6.47097404	          4.40310432	          0.14720033	         -0.57868612	         -3.92452076	          3.61370256	          0.16019927	          0.01000008	          0.01000027	          0.02632050	          0.04260335	          0.01637447	          0.06098925	          0.02168864	          0.34193774	          0.01213535	          0.01472785	          0.18324063	          0.19480480	          0.01000003	          0.08036516	          0.08634836	          0.01430855	          0.14531109	          0.12485849	          0.05444934	          0.10678189	          0.15433696	          0.04559639	          0.01000045	          0.01784092	          0.01473288	          0.01000068	          0.40042049	
          0.70472136	         -7.97655713	          4.20033040	         -8.71700908	          0.80435204	          0.92164042	          0.01299858	         -9.80677562	         -4.62838920	          4.33354386	        -16.58873486	          5.36263239	         37.77438019	         29.70316100	          1.30026265	         -4.69945419	         -7.61182842	          4.12005666	          0.12345599	         -0.36021799	         -4.27702649	          3.67314513	          0.17162483	          0.01000011	          0.01000024	          0.02168881	          0.06730742	          0.02168833	          0.05025708	          0.01787204	          0.30406080	          0.01000042	          0.01213617	          0.15099530	          0.16052450	          0.01000006	          0.07569617	          0.07115344	          0.01179069	          0.15990509	          0.10669915	          0.05648816	          0.08799138	          0.15889029	          0.03757269	          0.01000035	          0.07331385	          0.01214045	          0.01000056	          0.40523163	
          0.71753447	         -7.98444181	          4.09220785	         -8.52477847	          0.82126869	          0.92236653	          0.01232965	         -8.82397685	         -4.48565696	          3.80564795	        -20.08365251	          3.87920872	         38.63508705	         29.25570284	          1.43399094	         -4.56512070	         -8.65042058	          4.00067250	          0.10154465	         -0.19036428	         -4.62241867	          3.69768908	          0.18080668	          0.01000013	          0.01000032	          0.01787218	          0.08572246	          0.01787202	          0.04141407	          0.01472706	          0.25388008	          0.01000022	          0.01000056	          0.12442426	          0.13227659	          0.01000006	          0.06237596	          0.05863240	          0.01000014	          0.15895780	          0.08792309	          0.05240913	          0.07250748	          0.15166564	          0.03096093	          0.01000032	          0.13133175	          0.01000489	          0.01000214	          0.39885800	
          0.73034759	         -7.97685949	          3.95450681	         -8.28589315	          0.83778393	          0.92385411	          0.01165977	         -7.48716911	         -4.30663163	          3.22412556	        -24.12688036	          2.30344946	         38.49784289	         28.67923771	          1.55815104	         -4.39999716	         -9.47160737	          4.02654616	          0.08614740	         -0.07195999	         -4.94819172	          3.68624565	          0.18712307	          0.01000012	          0.01000042	          0.01472717	          0.09722220	          0.01472716	          0.05331489	          0.01213551	          0.20920420	          0.01000016	          0.01000002	          0.10252900	          0.10899953	          0.01000005	          0.05139960	          0.04831473	          0.01000017	          0.15027790	          0.07245106	          0.05097497	          0.05974833	          0.13960758	          0.02551267	          0.01000032	          0.16415552	          0.01000189	          0.01000255	          0.38437507	
